<svg width="1352" height="1351" viewBox="0 0 1352 1351" fill="none" xmlns="http://www.w3.org/2000/svg">
<g clip-path="url(#clip0_2_969)">
<path fill-rule="evenodd" clip-rule="evenodd" d="M523.624 424.623C537.393 355.538 597.839 305.81 668.045 305.81C738.251 305.81 798.699 355.538 812.464 424.623L828.917 507.166C837.517 550.328 854.462 591.38 878.793 628.005L907.103 670.621C924.771 697.213 936.321 727.259 941.102 758.589C969.237 760.979 993.899 779.086 1004.52 805.73L1028.5 865.903C1040.59 896.239 1031.85 930.938 1006.83 951.851L914.932 1028.71C888.173 1051.09 849.594 1052.08 821.727 1031.11L784.72 1003.25C784.231 1002.89 783.747 1002.51 783.269 1002.13C765.102 1007.07 745.991 1009.71 726.266 1009.71H609.824C590.1 1009.71 570.99 1007.08 552.825 1002.13C552.346 1002.51 551.863 1002.89 551.374 1003.25L514.368 1031.11C486.501 1052.08 447.924 1051.09 421.163 1028.71L329.257 951.851C304.247 930.938 295.5 896.239 307.591 865.903L331.577 805.73C342.196 779.088 366.856 760.981 394.987 758.589C399.768 727.259 411.318 697.213 428.984 670.621L457.296 628.005C481.626 591.38 498.571 550.328 507.174 507.166L523.624 424.623ZM831.185 773.525C820.942 781.279 812.635 791.688 807.362 804.027L769.895 891.762C750.982 902.946 729.121 909.156 706.321 909.156H629.771C606.972 909.156 585.112 902.946 566.2 891.767L528.73 804.027C523.46 791.687 515.153 781.277 504.907 773.524C506.163 757.617 510.44 741.895 517.739 727.247L579.114 604.064L579.482 604.433C628.398 653.521 707.706 653.521 756.621 604.433L756.981 604.072L818.352 727.247C825.654 741.896 829.927 757.618 831.185 773.525ZM743.198 516.525V456.646H693.096V496.193C703.729 498.369 714.145 501.947 724.068 506.926L743.198 516.525ZM642.994 496.195V456.646H592.891V516.531L612.035 506.926C621.954 501.949 632.366 498.372 642.994 496.195ZM401.356 808.597C391.112 808.597 381.9 814.856 378.096 824.402L354.11 884.575C350.08 894.689 352.995 906.254 361.332 913.228L453.238 990.084C462.158 997.543 475.017 997.873 484.307 990.884L521.312 963.031C530.556 956.076 533.859 943.672 529.308 933.016L482.679 823.834C478.732 814.589 469.675 808.597 459.653 808.597H401.356ZM957.998 824.402C954.194 814.856 944.984 808.597 934.736 808.597H876.441C866.417 808.597 857.364 814.589 853.413 823.834L806.786 933.016C802.235 943.672 805.538 956.076 814.781 963.031L851.789 990.884C861.076 997.873 873.934 997.543 882.856 990.084L974.763 913.228C983.099 906.254 986.016 894.689 981.982 884.575L957.998 824.402ZM634.442 551.896C655.599 541.28 680.503 541.28 701.661 551.896L725.966 564.091L721.193 568.881C691.844 598.334 644.259 598.334 614.91 568.881L610.137 564.091L634.442 551.896Z" fill="#3C9EA5" fill-opacity="0.04"/>
</g>
<defs>
<clipPath id="clip0_2_969">
<rect width="731.671" height="740.381" fill="white" transform="translate(302.212 305.81)"/>
</clipPath>
</defs>
</svg>
