<svg width="408" height="550" viewBox="0 0 408 550" fill="none" xmlns="http://www.w3.org/2000/svg">
<path fill-rule="evenodd" clip-rule="evenodd" d="M0.0561523 23.86C0.0561523 10.9586 10.5148 0.5 23.4161 0.5H384.584C397.485 0.5 407.944 10.9586 407.944 23.86V526.64C407.944 539.541 397.485 550 384.584 550H23.4161C10.5148 550 0.0561523 539.541 0.0561523 526.64V23.86ZM23.4161 6.10639C13.6111 6.10639 5.66254 14.055 5.66254 23.86V526.64C5.66254 536.445 13.6111 544.394 23.4161 544.394H384.584C394.389 544.394 402.337 536.445 402.337 526.64V23.86C402.337 14.0549 394.389 6.10639 384.584 6.10639H23.4161Z" fill="#B1B1B4"/>
<path fill-rule="evenodd" clip-rule="evenodd" d="M51.6819 512.693C59.7587 512.693 66.3063 506.146 66.3063 498.069C66.3063 489.992 59.7587 483.445 51.6819 483.445C43.6051 483.445 37.0575 489.992 37.0575 498.069C37.0575 506.146 43.6051 512.693 51.6819 512.693ZM51.6819 518.3C62.855 518.3 71.9127 509.242 71.9127 498.069C71.9127 486.896 62.855 477.838 51.6819 477.838C40.5087 477.838 31.4511 486.896 31.4511 498.069C31.4511 509.242 40.5087 518.3 51.6819 518.3Z" fill="#B1B1B4"/>
<path fill-rule="evenodd" clip-rule="evenodd" d="M204 368.195C208.763 368.195 212.624 364.334 212.624 359.571C212.624 354.808 208.763 350.947 204 350.947C199.237 350.947 195.376 354.808 195.376 359.571C195.376 364.334 199.237 368.195 204 368.195ZM204 373.802C211.859 373.802 218.23 367.43 218.23 359.571C218.23 351.712 211.859 345.341 204 345.341C196.141 345.341 189.769 351.712 189.769 359.571C189.769 367.43 196.141 373.802 204 373.802Z" fill="#B1B1B4"/>
<path fill-rule="evenodd" clip-rule="evenodd" d="M356.372 512.693C364.449 512.693 370.997 506.146 370.997 498.069C370.997 489.992 364.449 483.445 356.372 483.445C348.295 483.445 341.748 489.992 341.748 498.069C341.748 506.146 348.295 512.693 356.372 512.693ZM356.372 518.3C367.545 518.3 376.603 509.242 376.603 498.069C376.603 486.896 367.545 477.838 356.372 477.838C345.199 477.838 336.141 486.896 336.141 498.069C336.141 509.242 345.199 518.3 356.372 518.3Z" fill="#B1B1B4"/>
<path fill-rule="evenodd" clip-rule="evenodd" d="M51.6819 66.6142C59.7587 66.6142 66.3063 60.0666 66.3063 51.9898C66.3063 43.913 59.7587 37.3654 51.6819 37.3654C43.6051 37.3654 37.0575 43.913 37.0575 51.9898C37.0575 60.0666 43.6051 66.6142 51.6819 66.6142ZM51.6819 72.2206C62.855 72.2206 71.9127 63.1629 71.9127 51.9898C71.9127 40.8166 62.855 31.759 51.6819 31.759C40.5087 31.759 31.4511 40.8166 31.4511 51.9898C31.4511 63.1629 40.5087 72.2206 51.6819 72.2206Z" fill="#B1B1B4"/>
<path fill-rule="evenodd" clip-rule="evenodd" d="M356.372 66.6142C364.449 66.6142 370.997 60.0666 370.997 51.9898C370.997 43.913 364.449 37.3654 356.372 37.3654C348.295 37.3654 341.748 43.913 341.748 51.9898C341.748 60.0666 348.295 66.6142 356.372 66.6142ZM356.372 72.2206C367.545 72.2206 376.603 63.1629 376.603 51.9898C376.603 40.8166 367.545 31.759 356.372 31.759C345.199 31.759 336.141 40.8166 336.141 51.9898C336.141 63.1629 345.199 72.2206 356.372 72.2206Z" fill="#B1B1B4"/>
<path fill-rule="evenodd" clip-rule="evenodd" d="M205.079 129.69H82.8478C73.5589 129.69 66.0287 137.22 66.0287 146.509V153.692C66.0287 162.981 73.5589 170.511 82.8478 170.511H205.079C214.368 170.511 221.898 162.981 221.898 153.692V146.509C221.898 137.22 214.368 129.69 205.079 129.69ZM82.8478 124.083C70.4625 124.083 60.4223 134.124 60.4223 146.509V153.692C60.4223 166.078 70.4625 176.118 82.8478 176.118H205.079C217.464 176.118 227.504 166.078 227.504 153.692V146.509C227.504 134.124 217.464 124.083 205.079 124.083H82.8478Z" fill="#B1B1B4"/>
<path fill-rule="evenodd" clip-rule="evenodd" d="M328.302 107.922H290.672C283.357 107.922 277.427 113.851 277.427 121.166C277.427 128.48 283.357 134.41 290.672 134.41H328.302C335.617 134.41 341.546 128.48 341.546 121.166C341.546 113.851 335.617 107.922 328.302 107.922ZM290.672 102.315C280.261 102.315 271.821 110.755 271.821 121.166C271.821 131.577 280.261 140.016 290.672 140.016H328.302C338.713 140.016 347.153 131.577 347.153 121.166C347.153 110.755 338.713 102.315 328.302 102.315H290.672Z" fill="#B1B1B4"/>
<path fill-rule="evenodd" clip-rule="evenodd" d="M248.935 222.848C234.797 218.204 219.692 215.692 204 215.692C124.538 215.692 60.1209 280.109 60.1209 359.571C60.1209 439.033 124.538 503.45 204 503.45C283.462 503.45 347.879 439.033 347.879 359.571C347.879 317.436 329.767 279.532 300.904 253.218L297.111 257.346C324.859 282.635 342.272 319.07 342.272 359.571C342.272 435.937 280.366 497.844 204 497.844C127.634 497.844 65.7273 435.937 65.7273 359.571C65.7273 283.205 127.634 221.299 204 221.299C219.099 221.299 233.633 223.719 247.235 228.192L248.935 222.848Z" fill="#B1B1B4"/>
<path fill-rule="evenodd" clip-rule="evenodd" d="M312.906 179.727C311.985 177.246 309.455 175.748 306.837 176.132L268.12 181.813C266.706 182.021 265.534 183.016 265.101 184.378L219.148 328.769C218.238 331.629 221.853 333.726 223.884 331.515L325.881 220.512C326.831 219.478 327.121 217.998 326.632 216.682L312.906 179.727ZM305.751 168.736C311.86 167.84 317.764 171.336 319.914 177.124L333.64 214.079C335.107 218.028 334.236 222.467 331.385 225.57L229.388 336.573C221.941 344.678 208.687 336.99 212.025 326.502L257.978 182.111C259.278 178.026 262.793 175.039 267.035 174.417L305.751 168.736Z" fill="#B1B1B4"/>
<path fill-rule="evenodd" clip-rule="evenodd" d="M60.3452 105.86C60.3452 103.796 62.0185 102.123 64.0828 102.123L223.85 102.123C225.915 102.123 227.588 103.796 227.588 105.86C227.588 107.925 225.915 109.598 223.85 109.598L64.0827 109.598C62.0185 109.598 60.3452 107.924 60.3452 105.86Z" fill="#B1B1B4"/>
</svg>
