<svg width="80" height="80" viewBox="0 0 80 80" fill="none" xmlns="http://www.w3.org/2000/svg">
<g clip-path="url(#clip0_2_690)">
<path fill-rule="evenodd" clip-rule="evenodd" d="M30.9837 25.1256C31.7984 21.0378 35.3751 18.0952 39.5293 18.0952C43.6835 18.0952 47.2603 21.0378 48.0748 25.1256L49.0483 30.0098C49.5572 32.5638 50.5599 34.9929 51.9996 37.16L53.6748 39.6817C54.7202 41.2552 55.4036 43.0331 55.6865 44.8869C57.3513 45.0283 58.8106 46.0998 59.4389 47.6763L60.8581 51.2368C61.5736 53.0319 61.0561 55.0851 59.576 56.3225L54.138 60.8703C52.5546 62.1945 50.2718 62.2532 48.6229 61.0122L46.4331 59.3641C46.4042 59.3425 46.3756 59.3203 46.3473 59.2978C45.2723 59.5901 44.1415 59.7464 42.9743 59.7464H36.0843C34.9172 59.7464 33.7864 59.5904 32.7115 59.2978C32.6832 59.3203 32.6546 59.3425 32.6257 59.3641L30.436 61.0122C28.787 62.2532 26.5044 62.1945 24.9209 60.8703L19.4827 56.3225C18.0028 55.0851 17.4852 53.0319 18.2007 51.2368L19.62 47.6763C20.2483 46.0998 21.7074 45.0284 23.372 44.8869C23.6549 43.0331 24.3384 41.2552 25.3837 39.6817L27.0589 37.16C28.4986 34.9929 29.5013 32.5638 30.0103 30.0098L30.9837 25.1256ZM49.1826 45.7707C48.5764 46.2295 48.0849 46.8454 47.7729 47.5755L45.5559 52.767C44.4368 53.4288 43.1433 53.7962 41.7941 53.7962H37.2646C35.9155 53.7962 34.622 53.4288 33.503 52.7672L31.2858 47.5755C30.9739 46.8454 30.4824 46.2294 29.8762 45.7706C29.9505 44.8294 30.2036 43.8991 30.6354 43.0324L34.2671 35.7434L34.2889 35.7653C37.1833 38.6699 41.8761 38.6699 44.7705 35.7653L44.7918 35.7439L48.4232 43.0323C48.8553 43.8991 49.1081 44.8295 49.1826 45.7707ZM43.9762 30.5636V27.0204H41.0116V29.3605C41.6408 29.4893 42.2571 29.701 42.8442 29.9956L43.9762 30.5636ZM38.047 29.3606V27.0204H35.0823V30.564L36.2151 29.9956C36.802 29.7011 37.4181 29.4895 38.047 29.3606ZM23.7489 47.846C23.1427 47.846 22.5977 48.2163 22.3726 48.7812L20.9533 52.3417C20.7148 52.9401 20.8873 53.6245 21.3806 54.0371L26.8188 58.5849C27.3467 59.0262 28.1075 59.0457 28.6572 58.6322L30.8469 56.9841C31.3939 56.5725 31.5893 55.8386 31.32 55.208L28.5609 48.7476C28.3273 48.2005 27.7914 47.846 27.1984 47.846H23.7489ZM56.6863 48.7812C56.4612 48.2163 55.9162 47.846 55.3098 47.846H51.8604C51.2673 47.846 50.7316 48.2005 50.4978 48.7476L47.7388 55.208C47.4696 55.8386 47.665 56.5725 48.2119 56.9841L50.4017 58.6322C50.9513 59.0457 51.7121 59.0262 52.24 58.5849L57.6783 54.0371C58.1716 53.6245 58.3442 52.9401 58.1055 52.3417L56.6863 48.7812ZM37.5409 32.6566C38.7929 32.0284 40.2665 32.0284 41.5184 32.6566L42.9565 33.3782L42.6742 33.6616C40.9375 35.4043 38.1218 35.4043 36.3852 33.6616L36.1028 33.3782L37.5409 32.6566Z" fill="#3C9EA5"/>
</g>
<defs>
<clipPath id="clip0_2_690">
<rect width="43.2941" height="43.8095" fill="white" transform="translate(17.8824 18.0952)"/>
</clipPath>
</defs>
</svg>
