<svg width="996" height="90" viewBox="0 0 996 90" fill="none" xmlns="http://www.w3.org/2000/svg">
<path d="M17.904 0.527992L53.232 36.24L88.56 0.527992H106.224V90H90.736V21.008L58.608 53.392H47.856L15.728 21.008V90H0.240001V0.527992H17.904ZM246.06 0.527992H261.548V90H246.06V0.527992ZM402.255 90V0.527992H418.895L492.751 69.904V0.527992H508.239V90H492.111L417.743 20.624V90H402.255ZM648.075 0.527992H663.563V63.76C663.563 64.784 663.776 65.8933 664.203 67.088C664.63 68.2827 665.27 69.3493 666.123 70.288C666.976 71.2267 668.043 72.0373 669.323 72.72C670.603 73.3173 672.054 73.616 673.675 73.616H728.459C730.166 73.616 731.659 73.3173 732.939 72.72C734.219 72.0373 735.243 71.2267 736.011 70.288C736.864 69.3493 737.504 68.2827 737.931 67.088C738.358 65.8933 738.571 64.784 738.571 63.76V0.527992H754.059V63.76C754.059 66.576 753.504 69.5627 752.395 72.72C751.286 75.792 749.664 78.608 747.531 81.168C745.398 83.728 742.71 85.8613 739.467 87.568C736.31 89.1893 732.64 90 728.459 90H673.675C669.494 90 665.782 89.1893 662.539 87.568C659.382 85.8613 656.736 83.728 654.603 81.168C652.47 78.608 650.848 75.792 649.739 72.72C648.63 69.5627 648.075 66.576 648.075 63.76V0.527992ZM891.847 90L931.655 45.2L891.847 0.527992H915.911L943.687 31.76L971.591 0.527992H995.655L955.719 45.2L995.655 90H971.591L943.687 58.768L915.911 90H891.847Z" fill="white"/>
</svg>
