<svg width="718" height="877" viewBox="0 0 718 877" fill="none" xmlns="http://www.w3.org/2000/svg">
<path opacity="0.2" d="M149.349 87.1577C149.349 85.5009 150.692 84.1577 152.349 84.1577H477.858C480.525 84.1577 481.866 87.3787 479.986 89.2716L154.477 417.073C152.591 418.973 149.349 417.637 149.349 414.959V87.1577Z" fill="#BCBCBC" stroke="white" stroke-width="4"/>
<rect x="237.825" y="173.444" width="161.566" height="163.011" rx="10" fill="#757575"/>
<path opacity="0.2" d="M478.297 636.098C478.297 631.638 481.945 628.039 486.405 628.099L556.507 629.039C559.76 629.082 561.015 633.295 558.315 635.111C556.293 636.471 555.08 638.748 555.08 641.184V697.468C555.08 701.887 551.499 705.468 547.08 705.468H475.945C473.159 705.468 472.243 701.731 474.714 700.443C476.916 699.295 478.297 697.017 478.297 694.534V636.098Z" fill="#A9A9A9" stroke="white" stroke-width="4"/>
<rect x="288.295" y="224.347" width="60.6265" height="61.2045" rx="8" fill="#D2D2D2" stroke="#4CC5CD" stroke-width="4"/>
<rect x="142.386" y="512.051" width="70.0279" height="18.5175" rx="3.5" stroke="#4CC5CD" stroke-width="3"/>
<rect x="520.304" y="425.741" width="341.584" height="17.3267" rx="3" transform="rotate(-90 520.304 425.741)" stroke="#4CC5CD" stroke-width="4"/>
<rect opacity="0.2" x="558.434" y="425.741" width="341.584" height="17.3267" rx="3" transform="rotate(-90 558.434 425.741)" stroke="white" stroke-width="4"/>
<path opacity="0.2" d="M696.657 196.621C691.343 199.2 685.163 195.33 685.163 189.424L685.163 99.4517C685.163 93.1845 692.043 89.3511 697.372 92.6484L711.624 101.466C713.981 102.924 715.415 105.498 715.415 108.269L715.415 182.505C715.415 185.569 713.665 188.364 710.909 189.702L696.657 196.621Z" fill="#79797F" stroke="white" stroke-width="4"/>
<path opacity="0.2" d="M696.657 459.395C691.343 461.974 685.163 458.104 685.163 452.198L685.163 362.226C685.163 355.959 692.043 352.125 697.372 355.423L711.624 364.24C713.981 365.699 715.415 368.272 715.415 371.044L715.415 445.28C715.415 448.344 713.665 451.139 710.909 452.477L696.657 459.395Z" fill="#79797F" stroke="white" stroke-width="4"/>
<path opacity="0.2" d="M696.657 722.168C691.343 724.747 685.163 720.877 685.163 714.971L685.163 624.999C685.163 618.732 692.043 614.898 697.372 618.196L711.624 627.013C713.981 628.471 715.415 631.045 715.415 633.817L715.415 708.053C715.415 711.117 713.665 713.911 710.909 715.25L696.657 722.168Z" fill="#79797F" stroke="white" stroke-width="4"/>
<rect x="239.325" y="512.051" width="70.0279" height="18.5175" rx="3.5" stroke="#4CC5CD" stroke-width="3"/>
<rect x="336.265" y="512.051" width="70.0279" height="18.5175" rx="3.5" stroke="#4CC5CD" stroke-width="3"/>
<rect x="140.886" y="562.714" width="266.907" height="21.5175" rx="5" fill="#D9D9D9" fill-opacity="0.2"/>
<rect x="142.386" y="616.378" width="70.0279" height="18.5175" rx="3.5" stroke="#4CC5CD" stroke-width="3"/>
<rect x="237.825" y="614.878" width="73.0279" height="21.5175" rx="5" fill="#D9D9D9" fill-opacity="0.2"/>
<rect x="336.265" y="616.378" width="70.0279" height="18.5175" rx="3.5" stroke="#FC4E4E" stroke-width="3"/>
<rect x="142.386" y="668.542" width="70.0279" height="18.5175" rx="3.5" stroke="#4CC5CD" stroke-width="3"/>
<rect x="237.825" y="667.042" width="73.0279" height="21.5175" rx="5" fill="#D9D9D9" fill-opacity="0.2"/>
<rect x="334.765" y="667.042" width="73.0279" height="21.5175" rx="5" fill="#D9D9D9" fill-opacity="0.2"/>
<rect x="142.386" y="720.705" width="70.0279" height="18.5175" rx="3.5" stroke="#4CC5CD" stroke-width="3"/>
<rect x="239.325" y="720.705" width="70.0279" height="18.5175" rx="3.5" stroke="#4CC5CD" stroke-width="3"/>
<rect x="336.765" y="721.205" width="69.0279" height="17.5175" rx="3" stroke="#4CC5CD" stroke-width="4"/>
<rect x="142.386" y="772.869" width="70.0279" height="18.5175" rx="3.5" stroke="#4CC5CD" stroke-width="3"/>
<rect x="239.325" y="772.869" width="70.0279" height="18.5175" rx="3.5" stroke="#4CC5CD" stroke-width="3"/>
<rect x="336.265" y="772.869" width="70.0279" height="18.5175" rx="3.5" stroke="#4CC5CD" stroke-width="3"/>
<g opacity="0.4">
<mask id="path-26-inside-1_2_657" fill="white">
<path d="M0 97.1548H69.4905C75.0134 97.1548 79.4905 101.632 79.4905 107.155V130.842C79.4905 136.365 75.0134 140.842 69.4905 140.842H0V97.1548Z"/>
</mask>
<path d="M0 93.1548H69.4905C77.2225 93.1548 83.4905 99.4228 83.4905 107.155H75.4905C75.4905 103.841 72.8043 101.155 69.4905 101.155H0V93.1548ZM83.4905 130.842C83.4905 138.574 77.2225 144.842 69.4905 144.842H0V136.842H69.4905C72.8043 136.842 75.4905 134.155 75.4905 130.842H83.4905ZM0 140.842V97.1548V140.842ZM69.4905 93.1548C77.2225 93.1548 83.4905 99.4228 83.4905 107.155V130.842C83.4905 138.574 77.2225 144.842 69.4905 144.842V136.842C72.8043 136.842 75.4905 134.155 75.4905 130.842V107.155C75.4905 103.841 72.8043 101.155 69.4905 101.155V93.1548Z" fill="white" mask="url(#path-26-inside-1_2_657)"/>
</g>
<g opacity="0.4">
<mask id="path-28-inside-2_2_657" fill="white">
<path d="M0 173.444H69.4905C75.0134 173.444 79.4905 177.921 79.4905 183.444V218.216C79.4905 223.738 75.0134 228.216 69.4905 228.216H0V173.444Z"/>
</mask>
<path d="M0 169.444H69.4905C77.2225 169.444 83.4905 175.712 83.4905 183.444H75.4905C75.4905 180.13 72.8043 177.444 69.4905 177.444H0V169.444ZM83.4905 218.216C83.4905 225.948 77.2225 232.216 69.4905 232.216H0V224.216H69.4905C72.8043 224.216 75.4905 221.529 75.4905 218.216H83.4905ZM0 228.216V173.444V228.216ZM69.4905 169.444C77.2225 169.444 83.4905 175.712 83.4905 183.444V218.216C83.4905 225.948 77.2225 232.216 69.4905 232.216V224.216C72.8043 224.216 75.4905 221.529 75.4905 218.216V183.444C75.4905 180.13 72.8043 177.444 69.4905 177.444V169.444Z" fill="white" mask="url(#path-28-inside-2_2_657)"/>
</g>
<g opacity="0.4">
<mask id="path-30-inside-3_2_657" fill="white">
<path d="M0 260.818H39.7624C45.2852 260.818 49.7624 265.296 49.7624 270.818V294.505C49.7624 300.028 45.2852 304.505 39.7624 304.505H0V260.818Z"/>
</mask>
<path d="M0 256.818H39.7624C47.4944 256.818 53.7624 263.086 53.7624 270.818H45.7624C45.7624 267.505 43.0761 264.818 39.7624 264.818H0V256.818ZM53.7624 294.505C53.7624 302.237 47.4944 308.505 39.7624 308.505H0V300.505H39.7624C43.0761 300.505 45.7624 297.819 45.7624 294.505H53.7624ZM0 304.505V260.818V304.505ZM39.7624 256.818C47.4944 256.818 53.7624 263.086 53.7624 270.818V294.505C53.7624 302.237 47.4944 308.505 39.7624 308.505V300.505C43.0761 300.505 45.7624 297.819 45.7624 294.505V270.818C45.7624 267.505 43.0761 264.818 39.7624 264.818V256.818Z" fill="white" mask="url(#path-30-inside-3_2_657)"/>
</g>
<g opacity="0.4">
<mask id="path-32-inside-4_2_657" fill="white">
<path d="M0 406.224H50.7489C56.2717 406.224 60.7489 410.701 60.7489 416.224V449.692C60.7489 455.215 56.2717 459.692 50.7489 459.692H0V406.224Z"/>
</mask>
<path d="M0 402.224H50.7489C58.4809 402.224 64.7489 408.492 64.7489 416.224H56.7489C56.7489 412.91 54.0626 410.224 50.7489 410.224H0V402.224ZM64.7489 449.692C64.7489 457.424 58.4809 463.692 50.7489 463.692H0V455.692H50.7489C54.0626 455.692 56.7489 453.005 56.7489 449.692H64.7489ZM0 459.692V406.224V459.692ZM50.7489 402.224C58.4809 402.224 64.7489 408.492 64.7489 416.224V449.692C64.7489 457.424 58.4809 463.692 50.7489 463.692V455.692C54.0626 455.692 56.7489 453.005 56.7489 449.692V416.224C56.7489 412.91 54.0626 410.224 50.7489 410.224V402.224Z" fill="white" mask="url(#path-32-inside-4_2_657)"/>
</g>
<g opacity="0.4">
<mask id="path-34-inside-5_2_657" fill="white">
<path d="M0 478.601H39.7624C45.2852 478.601 49.7624 483.078 49.7624 488.601V500.551C49.7624 506.074 45.2852 510.551 39.7624 510.551H0V478.601Z"/>
</mask>
<path d="M0 474.601H39.7624C47.4944 474.601 53.7624 480.869 53.7624 488.601H45.7624C45.7624 485.287 43.0761 482.601 39.7624 482.601H0V474.601ZM53.7624 500.551C53.7624 508.283 47.4944 514.551 39.7624 514.551H0V506.551H39.7624C43.0761 506.551 45.7624 503.865 45.7624 500.551H53.7624ZM0 510.551V478.601V510.551ZM39.7624 474.601C47.4944 474.601 53.7624 480.869 53.7624 488.601V500.551C53.7624 508.283 47.4944 514.551 39.7624 514.551V506.551C43.0761 506.551 45.7624 503.865 45.7624 500.551V488.601C45.7624 485.287 43.0761 482.601 39.7624 482.601V474.601Z" fill="white" mask="url(#path-34-inside-5_2_657)"/>
</g>
<g opacity="0.4">
<mask id="path-36-inside-6_2_657" fill="white">
<path d="M0 337.107H50.7489C56.2717 337.107 60.7489 341.584 60.7489 347.107V370.794C60.7489 376.317 56.2717 380.794 50.7489 380.794H0V337.107Z"/>
</mask>
<path d="M0 333.107H50.7489C58.4809 333.107 64.7489 339.375 64.7489 347.107H56.7489C56.7489 343.793 54.0626 341.107 50.7489 341.107H0V333.107ZM64.7489 370.794C64.7489 378.526 58.4809 384.794 50.7489 384.794H0V376.794H50.7489C54.0626 376.794 56.7489 374.108 56.7489 370.794H64.7489ZM0 380.794V337.107V380.794ZM50.7489 333.107C58.4809 333.107 64.7489 339.375 64.7489 347.107V370.794C64.7489 378.526 58.4809 384.794 50.7489 384.794V376.794C54.0626 376.794 56.7489 374.108 56.7489 370.794V347.107C56.7489 343.793 54.0626 341.107 50.7489 341.107V333.107Z" fill="white" mask="url(#path-36-inside-6_2_657)"/>
</g>
<rect x="2" y="2" width="714" height="873" rx="18" stroke="#79797F" stroke-width="4"/>
</svg>
