<svg width="231" height="200" viewBox="0 0 231 200" fill="none" xmlns="http://www.w3.org/2000/svg">
<path fill-rule="evenodd" clip-rule="evenodd" d="M110.116 1.63392C108.01 2.82398 106.781 4.04386 105.594 6.12047L103.964 8.97252V100V191.027L105.594 193.88C107.662 197.497 111.748 200 115.587 200C119.425 200 123.511 197.497 125.579 193.88L127.209 191.027V100V8.97252L125.579 6.12047C123.511 2.50293 119.425 0 115.587 0C113.813 0 112.104 0.510526 110.116 1.63392ZM6.46659 26.3766C3.79127 27.8456 1.24083 31.2982 0.432661 34.5468C0.0731767 35.9901 -0.0657506 58.9953 0.0288505 101.27L0.173184 165.789L1.52463 168.395C2.26792 169.828 3.93074 171.802 5.22002 172.781C7.34827 174.398 7.95372 174.561 11.7956 174.561C15.6375 174.561 16.2429 174.398 18.3712 172.781C19.6605 171.802 21.3233 169.828 22.0666 168.395L23.418 165.789L23.6883 129.085L23.9586 92.3813L41.5274 130.504C51.1902 151.471 59.8011 169.514 60.6628 170.6C62.6872 173.151 64.8955 174.377 68.4287 174.91C72.1203 175.468 74.6178 174.682 77.212 172.146C81.2729 168.178 81.0345 172.937 80.8685 99.0725L80.7193 32.9409L79.2414 30.6515C76.8742 26.9848 74.3929 25.5029 70.1905 25.2462C66.1237 24.9977 63.4846 26.0731 60.8817 29.0398C57.6728 32.6977 57.7474 31.6895 57.7161 71.7649L57.6874 108.48L39.2013 68.7134C21.639 30.9351 20.5989 28.8608 18.3944 27.2105C15.2072 24.8257 9.95981 24.4585 6.46659 26.3766ZM176.131 26.0678C166.553 28.7889 158.043 36.3088 153.678 45.9064C150.013 53.9667 150.152 51.2287 150.311 112.08L150.454 167.045L151.805 169.205C154.089 172.854 156.807 174.498 160.976 174.753C165.05 175.002 167.687 173.929 170.291 170.96C173.418 167.396 173.428 167.294 173.428 138.908V112.865H190.436H207.443L207.599 139.327L207.755 165.789L209.107 168.395C209.85 169.828 211.513 171.802 212.802 172.781C214.93 174.398 215.536 174.561 219.378 174.561C223.219 174.561 223.825 174.398 225.953 172.781C227.242 171.802 228.905 169.828 229.649 168.395L231 165.789V110.819V55.848L229.496 51.0439C227.656 45.1667 223.619 38.4825 219.526 34.5363C215.777 30.9216 209.316 27.2158 204.72 26.0439C199.998 24.8398 180.396 24.8561 176.131 26.0678ZM199.526 50.9123C202.183 51.7105 205.239 54.6491 206.477 57.5971C207.337 59.6468 207.463 61.6526 207.473 73.538L207.485 87.1345H190.457H173.428V74.1906C173.428 65.6433 173.654 60.4292 174.093 58.8398C174.903 55.9088 178.417 51.952 181.002 51.062C183.438 50.2222 196.87 50.114 199.526 50.9123Z" fill="#242834"/>
</svg>
