<svg width="36" height="39" viewBox="0 0 36 39" fill="none" xmlns="http://www.w3.org/2000/svg">
<path d="M30.7264 7.71419C30.1262 7.10308 29.1533 7.10308 28.5529 7.71419C27.9527 8.3253 27.9527 9.31593 28.5529 9.92704C31.3732 12.7986 32.9262 16.6165 32.9262 20.6775C32.9262 24.7383 31.3732 28.556 28.5529 31.4273C25.6424 34.3908 21.8199 35.8724 17.9963 35.872C14.1727 35.8718 10.3484 34.3898 7.4375 31.426C1.6168 25.4996 1.61742 15.8562 7.43852 9.92933C8.03873 9.31822 8.03873 8.32739 7.43852 7.71649C6.83832 7.10538 5.86537 7.10538 5.26496 7.71649C-1.75451 14.8635 -1.75512 26.4925 5.26394 33.6391C8.77459 37.2135 13.3852 39.0005 17.9965 39.0003C22.6066 39.0001 27.2172 37.2135 30.7266 33.6404C34.1273 30.1782 36 25.5745 36 20.6777C36.0002 15.7807 34.1273 11.1768 30.7264 7.71419Z" fill="#FC4E4E"/>
<path d="M17.8243 20.2724C18.6733 20.2724 19.3612 19.5718 19.3612 18.7076V1.56481C19.3612 0.700617 18.6733 0 17.8243 0C16.9754 0 16.2874 0.700617 16.2874 1.56481V18.7076C16.2874 19.572 16.9754 20.2724 17.8243 20.2724Z" fill="#FC4E4E"/>
</svg>
